<svg xmlns="http://www.w3.org/2000/svg" xmlns:xlink="http://www.w3.org/1999/xlink" id="Layer_1" x="0" y="0" enable-background="new 0 0 444.8 444.8" version="1.1" viewBox="0 0 444.8 444.8" xml:space="preserve"><style type="text/css">.st0{fill:#fff}</style><path d="M248.1,352L434,165.9c7.2-6.9,10.8-15.4,10.8-25.7s-3.6-18.8-10.8-25.7l-21.4-21.7c-7-7-15.6-10.6-25.7-10.6	c-9.9,0-18.6,3.5-26,10.6L222.4,231.5L83.7,92.8c-7-7-15.6-10.6-25.7-10.6c-9.9,0-18.6,3.5-26,10.6l-21.4,21.7	c-7,7-10.6,15.6-10.6,25.7s3.5,18.7,10.6,25.7L196.4,352c7.4,7,16.1,10.6,26,10.6C232.5,362.6,241.1,359.1,248.1,352L248.1,352z" class="st0"/></svg>